<?xml version="1.0" encoding="utf-8"?>
<!-- Generator: Adobe Illustrator 19.0.0, SVG Export Plug-In . SVG Version: 6.00 Build 0)  -->
<svg version="1.1" xmlns="http://www.w3.org/2000/svg" xmlns:xlink="http://www.w3.org/1999/xlink" x="0px" y="0px"
	 viewBox="0 0 186.3 255.5" style="enable-background:new 0 0 186.3 255.5;" xml:space="preserve">
<style type="text/css">
	.st0{fill:#F4F4F2;stroke:#000000;}
	.st1{fill:#7D1228;}
	.st2{fill:none;}
	.st3{fill:#791026;}
	.st4{font-family:'MyriadPro-Regular';}
	.st5{font-size:26.9039px;}
</style>
<g id="ace">
	<g>
		<path class="st0" d="M182.9,237.7c0,7.8-6.3,14.2-14.2,14.2H18.5c-7.8,0-14.2-6.3-14.2-14.2V16.6c0-7.8,6.3-14.2,14.2-14.2h150.2
			c7.8,0,14.2,6.3,14.2,14.2V237.7z"/>
	</g>
	<circle class="st1" cx="97.8" cy="127.8" r="57.2"/>
	<circle class="st1" cx="23.6" cy="54.5" r="9.3"/>
	<rect x="14.4" y="18" class="st2" width="27.8" height="27.3"/>
	<rect x="137.4" y="209.4" class="st2" width="27.8" height="27.3"/>
	<rect x="137.4" y="209.4" class="st2" width="27.8" height="27.3"/>
	<text transform="matrix(1 0 0 1 15.942 31.6153)" class="st3 st4 st5">X</text>
	<circle class="st1" cx="155.1" cy="198.2" r="9.3"/>
	<text transform="matrix(1 0 0 1 147.3851 236.655)" class="st3 st4 st5">X</text>
</g>
</svg>
