<?xml version="1.0" encoding="utf-8"?>
<!-- Generator: Adobe Illustrator 19.0.0, SVG Export Plug-In . SVG Version: 6.00 Build 0)  -->
<svg version="1.1" xmlns="http://www.w3.org/2000/svg" xmlns:xlink="http://www.w3.org/1999/xlink" x="0px" y="0px"
	 viewBox="0 0 186.3 255.5" style="enable-background:new 0 0 186.3 255.5;" xml:space="preserve">
<style type="text/css">
	.st0{fill:#F4F4F2;stroke:#000000;}
	.st1{fill:none;}
	.st2{fill:#791026;}
	.st3{font-family:'MyriadPro-Regular';}
	.st4{font-size:26.9039px;}
	.st5{fill:#7D1228;}
</style>
<g id="ace">
	<g>
		<path class="st0" d="M182.9,237.7c0,7.8-6.3,14.2-14.2,14.2H18.5c-7.8,0-14.2-6.3-14.2-14.2V16.6c0-7.8,6.3-14.2,14.2-14.2h150.2
			c7.8,0,14.2,6.3,14.2,14.2V237.7z"/>
	</g>
	<rect x="14.4" y="18" class="st1" width="27.8" height="27.3"/>
	<rect x="137.4" y="209.4" class="st1" width="27.8" height="27.3"/>
	<rect x="137.4" y="209.4" class="st1" width="27.8" height="27.3"/>
	<text transform="matrix(1 0 0 1 13.2988 34.2585)" class="st2 st3 st4">X</text>
	<text transform="matrix(1 0 0 1 147.3851 236.655)" class="st2 st3 st4">X</text>
	<polygon class="st5" points="93.6,56.9 114.5,99.2 161.2,106 127.4,138.9 135.4,185.4 93.6,163.5 51.9,185.4 59.8,138.9 26.1,106 
		72.8,99.2 	"/>
	<polygon class="st5" points="21,37.8 24.1,44 31,45.1 26,50 27.2,56.9 21,53.6 14.8,56.9 16,50 10.9,45.1 17.9,44 	"/>
	<polygon class="st5" points="155.1,192.3 158.2,198.6 165.1,199.6 160.1,204.5 161.3,211.4 155.1,208.2 148.9,211.4 150,204.5 
		145,199.6 152,198.6 	"/>
</g>
<g id="two">
</g>
<g id="three">
</g>
<g id="four">
</g>
<g id="five">
</g>
<g id="six">
</g>
<g id="seven">
</g>
<g id="eight">
</g>
<g id="nine">
</g>
<g id="ten">
</g>
<g id="jack">
</g>
<g id="queen">
</g>
<g id="king">
</g>
<g id="jolly">
</g>
<g id="back">
</g>
</svg>
