<?xml version="1.0" encoding="utf-8"?>
<!-- Generator: Adobe Illustrator 19.0.0, SVG Export Plug-In . SVG Version: 6.00 Build 0)  -->
<svg version="1.1" xmlns="http://www.w3.org/2000/svg" xmlns:xlink="http://www.w3.org/1999/xlink" x="0px" y="0px"
	 viewBox="0 0 186.3 255.5" style="enable-background:new 0 0 186.3 255.5;" xml:space="preserve">
<style type="text/css">
	.st0{fill:#F4F4F2;stroke:#000000;}
	.st1{fill:none;}
	.st2{fill:#791026;}
	.st3{font-family:'MyriadPro-Regular';}
	.st4{font-size:26.9039px;}
	.st5{fill:#7D1228;}
</style>
<g id="ace">
	<g>
		<path class="st0" d="M182.9,237.7c0,7.8-6.3,14.2-14.2,14.2H18.5c-7.8,0-14.2-6.3-14.2-14.2V16.6c0-7.8,6.3-14.2,14.2-14.2h150.2
			c7.8,0,14.2,6.3,14.2,14.2V237.7z"/>
	</g>
	<rect x="14.4" y="18" class="st1" width="27.8" height="27.3"/>
	<rect x="137.4" y="209.4" class="st1" width="27.8" height="27.3"/>
	<rect x="137.4" y="209.4" class="st1" width="27.8" height="27.3"/>
	<text transform="matrix(1 0 0 1 13.2988 34.2585)" class="st2 st3 st4">X</text>
	<text transform="matrix(1 0 0 1 147.3851 236.655)" class="st2 st3 st4">X</text>
	<g transform="translate(40, 75) scale(2)">
        <polygon stroke="#791026" points="25, 0, 0, 48, 50, 48" fill-opacity="null" 
            stroke-opacity="null" stroke-width="2" fill="#791026"/>
	</g>
	<g transform="translate(13, 42) scale(0.4)">
        <polygon stroke="#791026" points="25, 0, 0, 48, 50, 48" fill-opacity="null" 
            stroke-opacity="null" stroke-width="5" fill="#791026"/>
	</g>
	<g transform="translate(166.5, 210) scale(0.4) rotate(180)">
        <polygon stroke="#791026" points="25, 0, 0, 48, 50, 48" fill-opacity="null" 
            stroke-opacity="null" stroke-width="5" fill="#791026"/>
	</g>
</g>
</svg>
